<?xml version="1.0" encoding="UTF-8" standalone="no"?>
<!-- Created with Inkscape (http://www.inkscape.org/) -->
<svg
   xmlns:dc="http://purl.org/dc/elements/1.1/"
   xmlns:cc="http://web.resource.org/cc/"
   xmlns:rdf="http://www.w3.org/1999/02/22-rdf-syntax-ns#"
   xmlns:svg="http://www.w3.org/2000/svg"
   xmlns="http://www.w3.org/2000/svg"
   xmlns:xlink="http://www.w3.org/1999/xlink"
   xmlns:sodipodi="http://sodipodi.sourceforge.net/DTD/sodipodi-0.dtd"
   xmlns:inkscape="http://www.inkscape.org/namespaces/inkscape"
   width="744.09448819"
   height="1052.3622047"
   id="svg2235"
   sodipodi:version="0.32"
   inkscape:version="0.45.1"
   sodipodi:docbase="/Users/battlehorse/Documents/Devel/ruby/swarm/martin/layout/images"
   sodipodi:docname="button3.svg"
   inkscape:output_extension="org.inkscape.output.svg.inkscape"
   inkscape:export-filename="/Users/battlehorse/Documents/Devel/ruby/swarm/martin/layout/images/button3.png"
   inkscape:export-xdpi="51.630001"
   inkscape:export-ydpi="51.630001">
  <defs
     id="defs2237">
    <linearGradient
       id="linearGradient22776">
      <stop
         style="stop-color:#fea700;stop-opacity:1;"
         offset="0"
         id="stop22778" />
      <stop
         style="stop-color:#fead00;stop-opacity:1;"
         offset="1"
         id="stop22780" />
    </linearGradient>
    <linearGradient
       id="linearGradient4195">
      <stop
         id="stop4197"
         offset="0"
         style="stop-color:#ffffff;stop-opacity:0.90625;" />
      <stop
         id="stop4199"
         offset="1"
         style="stop-color:#ffffff;stop-opacity:0;" />
    </linearGradient>
    <linearGradient
       id="linearGradient4183">
      <stop
         style="stop-color:#6ae7e7;stop-opacity:1;"
         offset="0"
         id="stop4185" />
      <stop
         style="stop-color:#0082ff;stop-opacity:1;"
         offset="1"
         id="stop4187" />
    </linearGradient>
    <linearGradient
       inkscape:collect="always"
       xlink:href="#linearGradient4183"
       id="linearGradient4189"
       x1="496.30417"
       y1="506.30136"
       x2="234.27867"
       y2="182.86896"
       gradientUnits="userSpaceOnUse" />
    <linearGradient
       inkscape:collect="always"
       xlink:href="#linearGradient4195"
       id="linearGradient4193"
       gradientUnits="userSpaceOnUse"
       x1="339.41531"
       y1="144.25015"
       x2="338.06671"
       y2="344.58514"
       gradientTransform="matrix(0.929723,0,0,0.8487051,23.168217,27.583328)" />
    <filter
       inkscape:collect="always"
       id="filter4229">
      <feGaussianBlur
         inkscape:collect="always"
         stdDeviation="10.329165"
         id="feGaussianBlur4231" />
    </filter>
    <linearGradient
       inkscape:collect="always"
       xlink:href="#linearGradient4183"
       id="linearGradient84460"
       gradientUnits="userSpaceOnUse"
       gradientTransform="translate(109.04456,55.231588)"
       x1="442.45712"
       y1="468.6424"
       x2="-14.184418"
       y2="69.685593" />
    <linearGradient
       inkscape:collect="always"
       xlink:href="#linearGradient4183"
       id="linearGradient84463"
       gradientUnits="userSpaceOnUse"
       gradientTransform="translate(221.7369,-3.0575542)"
       x1="336.24133"
       y1="526.93152"
       x2="-120.40018"
       y2="120.20285" />
    <linearGradient
       inkscape:collect="always"
       xlink:href="#linearGradient4183"
       id="linearGradient84468"
       gradientUnits="userSpaceOnUse"
       x1="538.31036"
       y1="529.52216"
       x2="97.212608"
       y2="115.02159" />
  </defs>
  <sodipodi:namedview
     id="base"
     pagecolor="#ffffff"
     bordercolor="#666666"
     borderopacity="1.0"
     gridtolerance="10000"
     guidetolerance="10"
     objecttolerance="10"
     inkscape:pageopacity="1"
     inkscape:pageshadow="2"
     inkscape:zoom="0.44091284"
     inkscape:cx="372.04724"
     inkscape:cy="526.18109"
     inkscape:document-units="px"
     inkscape:current-layer="layer1"
     inkscape:window-width="701"
     inkscape:window-height="667"
     inkscape:window-x="628"
     inkscape:window-y="3"
     showguides="true"
     inkscape:guide-bbox="true" />
  <metadata
     id="metadata2240">
    <rdf:RDF>
      <cc:Work
         rdf:about="">
        <dc:format>image/svg+xml</dc:format>
        <dc:type
           rdf:resource="http://purl.org/dc/dcmitype/StillImage" />
      </cc:Work>
    </rdf:RDF>
  </metadata>
  <g
     inkscape:label="Layer 1"
     inkscape:groupmode="layer"
     id="layer1">
    <rect
       style="opacity:1;fill:#494b49;fill-opacity:0.7194245;stroke:none;stroke-opacity:1;filter:url(#filter4229)"
       id="rect4201"
       width="515.1778"
       height="462.64987"
       x="74.393936"
       y="117.07156"
       rx="60"
       ry="60" />
    <rect
       style="opacity:1;fill:url(#linearGradient4189);fill-opacity:1;stroke:none;stroke-opacity:1"
       id="rect2243"
       width="515.1778"
       height="462.64987"
       x="66.670067"
       y="98.778183"
       rx="60"
       ry="60" />
    <rect
       style="opacity:1;fill:url(#linearGradient4193);fill-opacity:1;stroke:none;stroke-opacity:1"
       id="rect4191"
       width="478.97266"
       height="392.65329"
       x="85.152901"
       y="111.41687"
       rx="55.783382"
       ry="50.922306" />
    <g
       id="g85617"
       transform="matrix(1.3308883,0,0,1.4828925,-162.6581,-418.21599)"
       style="stroke:#005ac4;stroke-opacity:1">
      <path
         id="path85569"
         d="M 429.18246,456.23563 C 429.08292,484.91872 403.68497,508.12345 372.49056,508.03198 C 341.29609,507.94045 316.05959,484.58722 316.15907,455.90413 C 316.25861,427.22109 341.65662,404.01631 372.85109,404.10784 C 404.0455,404.19931 429.28194,427.55259 429.18246,456.23563 z "
         style="font-size:12px;fill:none;fill-opacity:1;fill-rule:evenodd;stroke:#005ac4;stroke-width:17.6182766;stroke-linecap:round;stroke-linejoin:round;stroke-opacity:1" />
      <path
         id="path85571"
         d="M 424.33165,525.49581 C 405.4604,534.66068 394.96088,552.95528 387.35283,571.89948 L 521.49649,572.29294 C 514.64348,553.7648 505.30451,535.60514 488.04189,525.6827 C 469.73824,524.89714 446.61747,525.56123 424.33165,525.49581 z "
         style="font-size:12px;fill:none;fill-opacity:1;fill-rule:evenodd;stroke:#005ac4;stroke-width:17.6182766;stroke-linecap:round;stroke-linejoin:round;stroke-opacity:1" />
      <path
         id="path85573"
         d="M 510.93629,487.75879 C 510.83675,516.44188 485.43875,539.6466 454.24428,539.55513 C 423.04987,539.46366 397.81343,516.11037 397.91291,487.42728 C 398.01245,458.74424 423.4104,435.53946 454.60481,435.63099 C 485.79928,435.72246 511.03577,459.07575 510.93629,487.75879 z "
         style="font-size:12px;fill:none;fill-opacity:1;fill-rule:evenodd;stroke:#005ac4;stroke-width:17.6182766;stroke-linecap:round;stroke-linejoin:round;stroke-opacity:1" />
      <path
         id="path85575"
         d="M 260.82398,525.49581 C 241.95279,534.66068 231.45321,552.95528 223.84516,571.89948 L 357.98882,572.29294 C 351.13581,553.7648 341.79685,535.60514 324.53422,525.6827 C 306.23057,524.89714 283.1098,525.56123 260.82398,525.49581 z "
         style="font-size:12px;fill:none;fill-opacity:1;fill-rule:evenodd;stroke:#005ac4;stroke-width:17.6182766;stroke-linecap:round;stroke-linejoin:round;stroke-opacity:1" />
      <path
         id="path85577"
         d="M 347.42862,487.75879 C 347.32908,516.44188 321.93114,539.6466 290.73673,539.55513 C 259.54226,539.46366 234.30582,516.11037 234.4053,487.42728 C 234.50484,458.74424 259.90279,435.53946 291.09726,435.63099 C 322.29167,435.72246 347.52816,459.07575 347.42862,487.75879 z "
         style="font-size:12px;fill:none;fill-opacity:1;fill-rule:evenodd;stroke:#005ac4;stroke-width:17.6182766;stroke-linecap:round;stroke-linejoin:round;stroke-opacity:1" />
      <path
         id="path85579"
         d="M 342.57776,563.07785 C 323.70656,572.24266 313.20704,590.53731 305.59894,609.48151 L 439.74259,609.87497 C 432.88959,591.34683 423.55062,573.18717 406.28799,563.26474 C 387.98435,562.47922 364.86358,563.14326 342.57776,563.07785 z "
         style="font-size:12px;fill:none;fill-opacity:1;fill-rule:evenodd;stroke:#005ac4;stroke-width:17.6182766;stroke-linecap:round;stroke-linejoin:round;stroke-opacity:1" />
      <path
         id="path85581"
         d="M 429.18246,525.34082 C 429.08292,554.02391 403.68497,577.22864 372.49056,577.13717 C 341.29609,577.04564 316.05959,553.69241 316.15907,525.00926 C 316.25861,496.32622 341.65662,473.1215 372.85109,473.21297 C 404.0455,473.3045 429.28194,496.65778 429.18246,525.34082 z "
         style="font-size:12px;fill:none;fill-opacity:1;fill-rule:evenodd;stroke:#005ac4;stroke-width:17.6182766;stroke-linecap:round;stroke-linejoin:round;stroke-opacity:1" />
    </g>
    <path
       style="font-size:12px;fill:none;fill-opacity:1;fill-rule:evenodd;stroke:#0088e1;stroke-width:25.01555443;stroke-linecap:round;stroke-linejoin:round;stroke-opacity:1"
       d="M 401.72145,254.46318 C 401.5878,297.53127 367.48732,332.37367 325.60405,332.23624 C 283.72087,332.09881 249.83708,297.03351 249.97065,253.96542 C 250.10429,210.89724 284.20493,176.05492 326.08812,176.19227 C 367.97131,176.3297 401.85502,211.395 401.72145,254.46318 z "
       id="path960" />
    <path
       style="font-size:12px;fill:none;fill-opacity:1;fill-rule:evenodd;stroke:#0088e1;stroke-width:25.01555443;stroke-linecap:round;stroke-linejoin:round;stroke-opacity:1"
       d="M 395.20851,358.45858 C 369.8711,372.2198 355.77391,399.68938 345.55889,428.13444 L 525.66691,428.72531 C 516.46572,400.90497 503.92675,373.63791 480.74908,358.7392 C 456.17376,357.55966 425.13058,358.55672 395.20851,358.45858 z "
       id="path961" />
    <path
       style="font-size:12px;fill:#ffffff;fill-opacity:1;fill-rule:evenodd;stroke:#000000;stroke-width:25.01555443;stroke-linecap:round;stroke-linejoin:round;stroke-opacity:1"
       d="M 511.48826,301.79576 C 511.35461,344.86386 477.25397,379.70625 435.37079,379.56882 C 393.48752,379.43147 359.60389,344.3661 359.73746,301.298 C 359.87102,258.2299 393.97159,223.38751 435.85485,223.52485 C 477.73804,223.66228 511.62183,258.72758 511.48826,301.79576 z "
       id="path962" />
    <path
       style="font-size:12px;fill:#ffffff;fill-opacity:0;fill-rule:evenodd;stroke:#0088e1;stroke-width:25.01555443;stroke-linecap:round;stroke-linejoin:round;stroke-opacity:1"
       d="M 175.67497,358.45858 C 150.33748,372.2198 136.24029,399.68938 126.02535,428.13444 L 306.13337,428.72531 C 296.9321,400.90497 284.39321,373.63791 261.21554,358.7392 C 236.64014,357.55966 205.59703,358.55672 175.67497,358.45858 z "
       id="path963" />
    <path
       style="font-size:12px;fill:url(#linearGradient84468);fill-opacity:1;fill-rule:evenodd;stroke:#0088e1;stroke-width:25.01555443;stroke-linecap:round;stroke-linejoin:round;stroke-opacity:1"
       d="M 291.95472,301.79576 C 291.82107,344.86386 257.72051,379.70625 215.83724,379.56882 C 173.95406,379.43147 140.07027,344.3661 140.20392,301.298 C 140.33748,258.2299 174.43813,223.38751 216.32131,223.52485 C 258.20457,223.66228 292.08829,258.72758 291.95472,301.79576 z "
       id="path964" />
    <path
       style="font-size:12px;fill:#2bc2fb;fill-opacity:1;fill-rule:evenodd;stroke:#0088e1;stroke-width:25.01555443;stroke-linecap:round;stroke-linejoin:round;stroke-opacity:1"
       d="M 285.4417,414.88868 C 260.10421,428.64981 246.00703,456.11956 235.79208,484.56462 L 415.9001,485.1554 C 406.69883,457.33498 394.15994,430.06801 370.98227,415.1693 C 346.40687,413.98976 315.36377,414.98682 285.4417,414.88868 z "
       id="path965" />
    <path
       style="font-size:12px;fill:#ffffff;fill-opacity:1;fill-rule:evenodd;stroke:#000000;stroke-width:25.01555443;stroke-linecap:round;stroke-linejoin:round;stroke-opacity:1"
       d="M 401.72145,358.22586 C 401.5878,401.29404 367.48732,436.13627 325.60405,435.99892 C 283.72087,435.86157 249.83708,400.79628 249.97065,357.72802 C 250.10429,314.65992 284.20493,279.81761 326.08812,279.95495 C 367.97131,280.09238 401.85502,315.15776 401.72145,358.22586 z "
       id="path966" />
    <path
       style="font-size:12px;fill:url(#linearGradient84463);fill-opacity:1;fill-rule:evenodd;stroke:#0088e1;stroke-width:25.01555443;stroke-linecap:round;stroke-linejoin:round;stroke-opacity:1"
       d="M 513.69162,298.73821 C 513.55797,341.80631 479.45741,376.6487 437.57414,376.51127 C 395.69096,376.37392 361.80717,341.30855 361.94082,298.24045 C 362.07438,255.17235 396.17503,220.32996 438.05821,220.4673 C 479.94147,220.60473 513.82519,255.67003 513.69162,298.73821 z "
       id="path82434" />
    <path
       style="font-size:12px;fill:url(#linearGradient84460);fill-opacity:1;fill-rule:evenodd;stroke:#0088e1;stroke-width:25.01555443;stroke-linecap:round;stroke-linejoin:round;stroke-opacity:1"
       d="M 400.99928,357.02735 C 400.86563,400.09545 366.76507,434.93784 324.8818,434.80041 C 282.99862,434.66306 249.11483,399.59769 249.24848,356.52959 C 249.38204,313.46149 283.48269,278.6191 325.36587,278.75644 C 367.24913,278.89387 401.13285,313.95917 400.99928,357.02735 z "
       id="path82438" />
    <rect
       style="opacity:0;fill:#2bc2fb;fill-opacity:1;stroke:#005ac4;stroke-width:30;stroke-linecap:round;stroke-miterlimit:4;stroke-dasharray:60, 30;stroke-dashoffset:0;stroke-opacity:1"
       id="rect86599"
       width="578.34558"
       height="501.23285"
       x="49.896484"
       y="95.25692"
       inkscape:export-xdpi="20.709999"
       inkscape:export-ydpi="20.709999"
       inkscape:export-filename="/Users/battlehorse/Documents/Devel/ruby/swarm/martin/layout/images/button3.png" />
  </g>
</svg>
